<svg width="416" height="104" fill="none" xmlns="http://www.w3.org/2000/svg"><path d="M26 0H0v26h26V0zm0 52H0v26h26V52zm390-26h-26v26h26V26zm0 52h-26v26h26V78zM234 0h-26v26h26V0zm0 52h-26v26h26V52zm-26-26h-26v26h26V26zm0 52h-26v26h26V78zM78 0H52v26h26V0zm0 52H52v26h26V52zM52 26H26v26h26V26zm0 52H26v26h26V78zM286 0h-26v26h26V0zm0 52h-26v26h26V52zm-26-26h-26v26h26V26zm0 52h-26v26h26V78zM130 0h-26v26h26V0zm0 52h-26v26h26V52zm-26-26H78v26h26V26zm0 52H78v26h26V78zM338 0h-26v26h26V0zm0 52h-26v26h26V52zm-26-26h-26v26h26V26zm0 52h-26v26h26V78zM182 0h-26v26h26V0zm0 52h-26v26h26V52zm-26-26h-26v26h26V26zm0 52h-26v26h26V78zM390 0h-26v26h26V0zm0 52h-26v26h26V52zm-26-26h-26v26h26V26zm0 52h-26v26h26V78z" fill="#fff"/><path d="M52 0H26v26h26V0zm0 52H26v26h26V52zM26 26H0v26h26V26zm0 52H0v26h26V78zM260 0h-26v26h26V0zm0 52h-26v26h26V52zm-26-26h-26v26h26V26zm0 52h-26v26h26V78zM104 0H78v26h26V0zm0 52H78v26h26V52zM78 26H52v26h26V26zm0 52H52v26h26V78zM312 0h-26v26h26V0zm0 52h-26v26h26V52zm-26-26h-26v26h26V26zm0 52h-26v26h26V78zM156 0h-26v26h26V0zm0 52h-26v26h26V52zm-26-26h-26v26h26V26zm0 52h-26v26h26V78zM364 0h-26v26h26V0zm0 52h-26v26h26V52zm-26-26h-26v26h26V26zm0 52h-26v26h26V78zM208 0h-26v26h26V0zm0 52h-26v26h26V52zm-26-26h-26v26h26V26zm0 52h-26v26h26V78zM416 0h-26v26h26V0zm0 52h-26v26h26V52zm-26-26h-26v26h26V26zm0 52h-26v26h26V78z" fill="#5036E6"/></svg>