<svg width="440" height="220" viewBox="0 0 440 220" fill="none" xmlns="http://www.w3.org/2000/svg">
<path fill-rule="evenodd" clip-rule="evenodd" d="M440 220C440 98.4974 341.503 1.06221e-05 220 0C98.4974 -1.06221e-05 1.06221e-05 98.4973 0 220L440 220Z" fill="#009465"/>
<path d="M220 1.9233e-05C161.652 1.41321e-05 105.695 23.1785 64.4366 64.4365C23.1786 105.694 5.10091e-06 161.652 0 220L220 220L220 1.9233e-05Z" fill="white"/>
<path d="M330 220C330 190.826 318.411 162.847 297.782 142.218C277.153 121.589 249.174 110 220 110C190.826 110 162.847 121.589 142.218 142.218C121.589 162.847 110 190.826 110 220L330 220Z" fill="black"/>
</svg>
