<svg width="280" height="140" viewBox="0 0 280 140" fill="none" xmlns="http://www.w3.org/2000/svg">
<path fill-rule="evenodd" clip-rule="evenodd" d="M280 140C280 62.6801 217.32 6.75952e-06 140 0C62.6801 -6.75952e-06 6.75952e-06 62.6801 0 140L280 140Z" fill="#009465"/>
<path d="M140 2.7498e-05C102.87 2.42519e-05 67.2602 14.75 41.0051 41.0051C14.75 67.2601 3.24603e-06 102.87 0 140L140 140L140 2.7498e-05Z" fill="black"/>
<path d="M210 140C210 121.435 202.625 103.63 189.497 90.5025C176.37 77.375 158.565 70 140 70C121.435 70 103.63 77.375 90.5025 90.5025C77.375 103.63 70 121.435 70 140L210 140Z" fill="white"/>
</svg>
