<svg width="880" height="440" fill="none" xmlns="http://www.w3.org/2000/svg"><path d="M880 220A220 220 0 00660 0v220h220z" fill="#009465"/><path d="M660 0c121.503 0 220 98.497 220 220s-98.497 220-220 220-220-98.497-220-220S538.497 0 660 0z" fill="#009465"/><path d="M660 440a219.998 219.998 0 00220-220H660v220z" fill="#fff"/><path d="M660 0a219.998 219.998 0 00-220 220h220V0z" fill="#000"/><path d="M660 110c60.751 0 110 49.249 110 110s-49.249 110-110 110-110-49.249-110-110 49.249-110 110-110z" fill="#000"/><path d="M770 220a110 110 0 10-220 0h220z" fill="#fff"/><path d="M220 440c121.503 0 220-98.497 220-220S341.503 0 220 0 0 98.497 0 220s98.497 220 220 220z" fill="#000"/><path d="M440 220a220.012 220.012 0 01-64.436 155.564A219.995 219.995 0 01220 440V220h220z" fill="#009465"/></svg>