<svg width="640" height="640" fill="none" xmlns="http://www.w3.org/2000/svg"><path d="M160 639.999c88.365 0 160-71.634 160-159.999 0-88.366-71.635-160-160-160C71.634 320 0 391.634 0 480c0 88.365 71.634 159.999 160 159.999z" fill="#5036E6"/><path d="M160 320a159.999 159.999 0 01160 159.999H160V320zm0 320A159.999 159.999 0 010 480.001h160V640z" fill="#5036E6"/><path d="M320 480.001A159.996 159.996 0 01160 640V480.001h160z" fill="#fff"/><path d="M159.999 400.001c-44.183 0-80 35.817-80 79.999 0 44.183 35.817 80 80 80s80-35.817 80-80c0-44.182-35.817-79.999-80-79.999z" fill="#000"/><path d="M80 480.001a80.002 80.002 0 0180-80 80.005 80.005 0 0156.569 23.431A80.003 80.003 0 01240 480.001H80z" fill="#fff"/><path d="M480 320c88.366 0 160-71.634 160-160S568.366 0 480 0 320 71.634 320 160s71.634 160 160 160z" fill="#5036E6"/><path d="M480 320a159.999 159.999 0 01-160-160h160v160z" fill="#fff"/><path d="M479.999 80c-44.182 0-80 35.817-80 80s35.818 80 80 80c44.183 0 80-35.817 80-80s-35.817-80-80-80z" fill="#000"/><path d="M400 160a80.005 80.005 0 0123.431-56.569 80.003 80.003 0 01113.138 0A80.005 80.005 0 01560 160H400z" fill="#fff"/><ellipse cx="160" cy="159.569" rx="160" ry="159.569" transform="matrix(-1 0 0 1 640 320)" fill="#5036E6"/><path d="M320 480.431c0 42.32 16.857 82.907 46.863 112.832C396.869 623.188 437.565 640 480 640V480.431H320z" fill="#fff"/><path d="M0 160C0 71.634 71.634 0 160 0v320C71.634 320 0 248.365 0 160zm160 160a160.014 160.014 0 00113.137-46.863A160.009 160.009 0 00320 160H160v160z" fill="#5036E6"/><path d="M160 0A160 160 0 000 160h160V0z" fill="#5036E6"/><path d="M320 160a160.012 160.012 0 00-98.771-147.82A160 160 0 00160 0v160h160z" fill="#000"/><path d="M160 80c44.183 0 80 35.817 80 80s-35.817 80-80 80-80-35.817-80-80 35.817-80 80-80z" fill="#000"/><path d="M160 240a80.005 80.005 0 0056.569-23.431 80.005 80.005 0 000-113.137A80 80 0 00160 80v160z" fill="#fff"/></svg>