<svg width="120" height="60" fill="none" xmlns="http://www.w3.org/2000/svg"><path d="M120 30c0-16.569-13.432-30-30-30-16.57 0-30 13.431-30 30 0 16.569 13.431 30 30 30 16.568 0 30-13.431 30-30z" fill="#5036E6"/><path d="M60 30A30 30 0 0190 0v30H60zm60 0a30 30 0 01-30 30V30h30z" fill="#5036E6"/><path d="M90 0a30 30 0 0130 30H90V0z" fill="#fff"/><path d="M75 30c0 8.285 6.716 15 15 15 8.284 0 15-6.715 15-15 0-8.284-6.716-15-15-15-8.284 0-15 6.716-15 15z" fill="#000"/><path d="M90 45a15 15 0 010-30v30z" fill="#fff"/><path d="M30 60C13.431 60 0 46.569 0 30h60c0 16.569-13.431 30-30 30zm30-30A30 30 0 0030 0v30h30z" fill="#5036E6"/><path d="M0 30a30 30 0 0030 30V30H0z" fill="#5036E6"/><path d="M30 0A30 30 0 000 30h30V0z" fill="#000"/><path d="M15 30c0-8.284 6.716-15 15-15 8.284 0 15 6.716 15 15 0 8.284-6.716 15-15 15-8.284 0-15-6.716-15-15z" fill="#000"/><path d="M45 30a15 15 0 00-30 0h30z" fill="#fff"/></svg>