<svg width="38" height="53" fill="none" xmlns="http://www.w3.org/2000/svg"><path d="M0 48.192h38V53H0v-4.808zm0-4.809h38v4.809H0v-4.809z" fill="#fff"/><path fill-rule="evenodd" clip-rule="evenodd" d="M25.24 13.055H12.76c-.322 19.495-3.295 34.767-6.914 34.767-.12 0-.24-.017-.36-.05l-.005.05h27.038l-.005-.05c-.12.033-.24.05-.36.05-3.62 0-6.592-15.272-6.914-34.767z" fill="#fff"/><path d="M31.846 12.575c0 6.945-5.562 12.576-12.423 12.576S7 19.52 7 12.575 12.562 0 19.423 0s12.423 5.63 12.423 12.575z" fill="#fff"/></svg>